<svg height="570.0" viewBox="-1210.0 -160.0 2520.0 570.0" width="2520.0" xmlns="http://www.w3.org/2000/svg" z1svg_version="2">
	<g style="stroke:black;fill:#3d9ecb">
		<path d="M -1200.0 -150.0 L -870.0 -150.0 L -800.0 100.0 L 200.0 100.0 L 300.0 -150.0 L 630.0 -150.0 L 700.0 100.0 L 1300.0 100.0 L 1300.0 400.0 L 100.0 400.0 L 100.0 300.0 L 0.0 300.0 L -100.0 400.0 L -200.0 400.0 L -200.0 300.0 L -300.0 300.0 L -400.0 400.0 L -500.0 400.0 L -500.0 300.0 L -600.0 300.0 L -700.0 400.0 L -1100.0 400.0 L -1200.0 300.0 Z" id="outlinePath" />
		<g id="holes" style="stroke:black;fill:#ffffff">
			<circle cx="-1150.0" cy="-50.0" id="pointHole_0_50mm" r="25.0" />
			<circle cx="350.0" cy="-50.0" id="pointHole_1_50mm" r="25.0" />
			<rect cx="-1050.0" cy="265.0" height="130.0" horizontal="0" id="rectHole_0_60mm_130mm" length="70.0" width="60.0" x="-1080.0" y="200.0" />
			<rect cx="-750.0" cy="265.0" height="140.0" horizontal="0" id="rectHole_1_70mm_140mm" length="70.0" width="70.0" x="-785.0" y="195.0" />
			<rect cx="-450.0" cy="265.0" height="140.0" horizontal="0" id="rectHole_2_70mm_140mm" length="70.0" width="70.0" x="-485.0" y="195.0" />
			<rect cx="-150.0" cy="265.0" height="140.0" horizontal="0" id="rectHole_3_70mm_140mm" length="70.0" width="70.0" x="-185.0" y="195.0" />
			<rect cx="150.0" cy="265.0" height="140.0" horizontal="0" id="rectHole_4_70mm_140mm" length="70.0" width="70.0" x="115.0" y="195.0" />
			<rect cx="450.0" cy="265.0" height="140.0" horizontal="0" id="rectHole_5_70mm_140mm" length="70.0" width="70.0" x="415.0" y="195.0" />
			<rect cx="750.0" cy="265.0" height="140.0" horizontal="0" id="rectHole_6_70mm_140mm" length="70.0" width="70.0" x="715.0" y="195.0" />
			<rect cx="1050.0" cy="265.0" height="130.0" horizontal="0" id="rectHole_7_60mm_130mm" length="70.0" width="60.0" x="1020.0" y="200.0" />
			<rect cx="-950.0" cy="-35.0" height="130.0" horizontal="0" id="rectHole_8_60mm_130mm" length="70.0" width="60.0" x="-980.0" y="-100.0" />
			<rect cx="550.0" cy="-35.0" height="130.0" horizontal="0" id="rectHole_9_60mm_130mm" length="70.0" width="60.0" x="520.0" y="-100.0" />
		</g>
	</g>
</svg>