<svg height="1220.0" viewBox="-355.0 -960.0 3125.0 1220.0" width="3125.0" xmlns="http://www.w3.org/2000/svg">
	<g style="stroke:black;fill:#3d9ecb">
		<path d="M 2760.0 -865.0 L 2760.0 -250.0 L -345.0 -250.0 L -345.0 -950.0 L 2730.0 -950.0 L 2730.0 -930.0 L 2660.0 -930.0 L 2660.0 -865.0 Z" id="outlinePath" />
		<g style="stroke:black;fill:#ffffff">
			<circle cx="-300.0" cy="-900.0" id="pointHole_0_60mm" r="30.0" />
			<circle cx="300.0" cy="-300.0" id="pointHole_1_70mm" r="35.0" />
			<circle cx="600.0" cy="-300.0" id="pointHole_2_70mm" r="35.0" />
			<circle cx="1200.0" cy="-300.0" id="pointHole_3_70mm" r="35.0" />
			<circle cx="1500.0" cy="-300.0" id="pointHole_4_70mm" r="35.0" />
			<circle cx="2100.0" cy="-300.0" id="pointHole_5_70mm" r="35.0" />
			<circle cx="2400.0" cy="-300.0" id="pointHole_6_70mm" r="35.0" />
			<circle cx="2100.0" cy="-900.0" id="pointHole_7_70mm" r="35.0" />
			<circle cx="1500.0" cy="-900.0" id="pointHole_8_70mm" r="35.0" />
			<circle cx="1200.0" cy="-900.0" id="pointHole_9_70mm" r="35.0" />
			<circle cx="300.0" cy="-900.0" id="pointHole_10_70mm" r="35.0" />
			<circle cx="600.0" cy="-900.0" id="pointHole_11_70mm" r="35.0" />
			<circle cx="0.0" cy="-900.0" id="pointHole_12_40mm" r="20.0" />
			<circle cx="0.0" cy="-300.0" id="pointHole_13_40mm" r="20.0" />
			<circle cx="900.0" cy="-300.0" id="pointHole_14_40mm" r="20.0" />
			<circle cx="900.0" cy="-900.0" id="pointHole_15_40mm" r="20.0" />
			<circle cx="1800.0" cy="-900.0" id="pointHole_16_40mm" r="20.0" />
			<circle cx="1800.0" cy="-300.0" id="pointHole_17_40mm" r="20.0" />
			<circle cx="2400.0" cy="-900.0" id="pointHole_18_40mm" r="20.0" />
			<circle cx="2700.0" cy="-300.0" id="pointHole_19_40mm" r="20.0" />
			<circle cx="2700.0" cy="-900.0" id="pointHole_20_60mm" r="30.0" />
		</g>
	</g>
</svg>